# Blender 4.2.3 LTS
# www.blender.org
mtllib Fichina Base.mtl
o Fortuna_Base
v 35.322338 33.068512 -6.359003
v 28.459944 25.186049 -10.013610
v -11.628902 39.519024 13.459275
v -6.790393 33.148949 42.946522
v 0.183307 25.267679 40.090721
v -0.010114 25.293793 20.254309
v -17.196711 28.789196 16.915119
v -11.640786 25.261446 0.295943
v -35.854561 33.070175 -5.665798
v 76.548882 3.745746 44.983406
v 76.665565 0.711809 44.987186
v 72.131660 0.724432 52.733250
v 72.131660 3.758365 52.728317
v 11.474417 39.518482 13.234275
v 17.223192 28.788109 16.404869
v 7.211619 33.148624 42.810169
v -71.505630 3.761716 54.127213
v -71.621178 0.727974 54.249950
v -76.073044 0.715372 46.474724
v -76.073044 3.749309 46.469791
v -6.108445 0.511696 -78.545677
v 4.158558 0.511267 -78.762329
v 4.158558 3.545201 -78.767273
v -5.701500 0.608682 -18.859924
v 4.916691 0.608433 -18.963303
v -6.109584 3.545440 -78.667305
v -1.086879 39.486629 -6.423264
v -28.679033 33.050476 -17.755314
v -29.064985 25.187393 -9.453382
v 11.229165 25.260914 0.073211
v 27.912430 33.049152 -18.306465
v -25.258678 0.665363 15.930763
v -4.833895 18.791550 4.266174
v -26.363188 6.675573 16.340181
v 26.261040 6.674345 15.827659
v 4.500779 18.791334 4.175263
v 25.148565 0.664184 15.439844
v -21.083735 6.689953 25.215963
v -0.090327 18.804146 12.038594
v -20.274345 0.679181 24.459347
v 20.331488 0.678234 24.063881
v 21.155666 6.688968 24.804594
v 5.139249 6.499456 -20.083673
v -5.945676 6.499716 -19.975721
v 25.148565 0.664184 15.439844
v 26.197134 7.334661 -8.678893
v 27.999470 0.623917 -9.327366
v 4.500779 18.791332 4.175263
v 4.916691 0.608433 -18.963305
v -5.701500 0.608682 -18.859924
v -28.591991 0.625236 -8.776212
v -4.833895 18.791550 4.266174
v -26.777142 7.335895 -8.162979
v -25.258678 0.665361 15.930763
v 20.331488 0.678234 24.063883
v 0.169085 0.702126 38.672119
v -20.274345 0.679181 24.459349
v -0.090327 18.804144 12.038593
v 0.157138 7.409791 37.436028
v -11.640786 25.261448 0.295943
v -0.321863 28.742537 -11.722900
v 11.229165 25.260916 0.073211
v -11.628902 39.519024 13.459273
v -1.086879 39.486633 -6.423264
v -35.854557 33.070179 -5.665798
v -28.679033 33.050480 -17.755314
v 11.474417 39.518482 13.234276
v -6.790393 33.148949 42.946522
v 7.211620 33.148624 42.810169
v 27.912430 33.049156 -18.306467
v 35.322334 33.068512 -6.359004
v 1.383322 0.651654 7.619300
v 20.331488 0.678234 24.063883
v -26.363188 6.675571 16.340183
v -20.274345 0.679182 24.459351
v -25.258678 0.665361 15.930765
v -1.887796 0.651068 7.242720
v 26.261040 6.674343 15.827659
v 21.155666 6.688967 24.804596
v -21.083735 6.689951 25.215961
v 25.148565 0.664184 15.439844
v -11.640786 25.261446 0.295944
v -4.833895 18.791550 4.266175
v -0.321863 28.742533 -11.722898
v -5.945676 6.499716 -19.975721
v 5.139249 6.499456 -20.083672
v -5.701500 0.608682 -18.859924
v 4.916691 0.608433 -18.963303
v 0.070223 0.646757 4.598032
v 11.229165 25.260912 0.073211
v 4.500779 18.791332 4.175263
v 17.223192 28.788107 16.404869
v -0.090327 18.804144 12.038594
v -0.010114 25.293793 20.254309
v -17.196711 28.789196 16.915119
v -25.258678 0.665362 15.930763
v -20.274345 0.679181 24.459345
v -71.505630 3.761717 54.127213
v -76.073044 3.749307 46.469791
v 72.131660 3.758365 52.728317
v 20.331488 0.678234 24.063881
v 76.548874 3.745746 44.983406
v 25.148565 0.664184 15.439844
v -6.109584 3.545438 -78.667305
v -5.701500 0.608682 -18.859924
v 4.158558 3.545199 -78.767273
v 4.916691 0.608433 -18.963303
v 17.223192 28.788111 16.404869
v -0.090327 18.804146 12.038593
v -1.086879 39.486633 -6.423264
v -17.196711 28.789198 16.915117
v -0.321863 28.742537 -11.722900
v -4.833895 18.791553 4.266174
v 4.500779 18.791334 4.175263
v -0.140958 34.840546 6.820025
v 11.474417 39.518482 13.234276
v -11.628902 39.519028 13.459273
v -6.790393 33.148949 42.946522
v 7.211620 33.148624 42.810169
v 0.183307 25.267681 40.090721
v -29.064985 25.187395 -9.453382
v -28.679033 33.050480 -17.755314
v -35.854557 33.070179 -5.665798
v 27.912430 33.049156 -18.306467
v 28.459944 25.186052 -10.013612
v 35.322334 33.068512 -6.359004
vn 0.3843 -0.6298 0.6751
vn 0.3851 -0.6424 0.6626
vn -0.7720 -0.6356 -0.0106
vn -0.7477 -0.6640 0.0064
vn -0.1082 0.3552 0.9285
vn -0.8700 0.3349 -0.3619
vn -0.3711 -0.6297 0.6824
vn -0.3721 -0.6424 0.6699
vn 0.8682 0.0340 0.4951
vn 0.8630 0.0008 0.5051
vn 0.1368 0.3474 0.9277
vn 0.4974 0.0181 -0.8673
vn 0.7477 -0.6640 -0.0082
vn 0.8552 0.3435 -0.3881
vn 0.7716 -0.6356 -0.0257
vn -0.8576 0.0534 0.5115
vn -0.8678 0.0008 0.4969
vn -0.0211 -0.0016 -0.9998
vn -1.0000 -0.0001 0.0068
vn 0.9999 -0.0000 -0.0127
vn -0.0097 -0.0401 -0.9991
vn 0.4172 -0.6223 -0.6623
vn 0.3573 -0.6863 -0.6334
vn -0.4076 -0.6471 -0.6442
vn -0.3696 -0.6863 -0.6264
vn 0.5018 0.0159 0.8648
vn -0.5152 -0.0014 -0.8571
vn 0.3825 0.8984 0.2160
vn 0.3814 0.8976 0.2212
vn -0.3769 0.8976 0.2286
vn -0.4770 -0.0278 -0.8785
vn -0.4842 0.0014 0.8749
vn -0.3781 0.8984 0.2235
vn 0.4598 -0.0278 -0.8876
vn 0.5446 -0.0322 0.8381
vn -0.5282 -0.0321 0.8485
vn -0.0044 0.8920 -0.4521
vn 0.5617 0.7908 0.2431
vn 0.9625 0.2478 0.1104
vn 0.0496 0.7857 -0.6166
vn 0.3782 0.1891 -0.9062
vn -0.9977 -0.0298 0.0609
vn 0.9987 -0.0299 0.0414
vn -0.3957 0.1891 -0.8987
vn -0.0616 0.7857 -0.6155
vn -0.5568 0.7909 0.2540
vn -0.9601 0.2479 0.1291
vn 0.4974 0.7933 0.3511
vn 0.5803 0.1486 0.8007
vn -0.5646 0.1486 0.8119
vn -0.4904 0.7933 0.3607
vn -0.7397 0.2546 -0.6229
vn 0.7191 0.3479 -0.6015
vn -0.1827 0.9782 -0.0985
vn -0.1827 0.9770 -0.1100
vn 0.0021 0.9775 0.2108
vn 0.1728 0.9789 -0.1087
vn 0.1727 0.9786 -0.1119
vn -0.3126 -0.0034 0.9499
vn 0.6554 0.0032 -0.7552
vn 0.3484 0.0002 0.9373
vn -0.0000 1.0000 -0.0016
vn 0.1980 -0.9735 0.1142
vn -0.6835 -0.0002 -0.7299
vn -0.1958 -0.9735 0.1180
vn -0.6671 -0.7421 -0.0655
vn -0.3720 -0.7374 -0.5639
vn 0.9710 -0.0050 -0.2389
vn -0.9795 -0.0013 -0.2015
vn -0.0023 -0.9729 -0.2312
vn 0.3609 -0.7374 -0.5710
vn 0.6639 -0.7432 -0.0832
vn 0.2851 -0.7535 0.5924
vn -0.2697 -0.7544 0.5985
vn 0.0441 0.9986 -0.0274
vn 0.0440 0.9986 -0.0278
vn -0.0447 0.9986 -0.0266
vn -0.0444 0.9987 -0.0269
vn 0.0005 0.9988 0.0490
vn 0.4340 -0.8641 0.2548
vn -0.5001 0.8054 0.3183
vn -0.4292 -0.8640 0.2634
vn -0.0052 -0.8483 -0.5294
vn -0.0057 0.8128 -0.5825
vn 0.4884 0.8337 0.2576
vn 0.0092 -0.3335 0.9427
vn -0.7707 -0.4444 -0.4567
vn 0.7616 -0.4444 -0.4716
vt -0.533203 0.013672
vt 0.361328 1.234375
vt 2.330078 0.013672
vt 2.022461 0.934570
vt 0.546875 1.225586
vt -1.056641 0.013672
vt 1.706055 0.013672
vt -1.034180 0.922852
vt 0.488281 0.944336
vt 1.588867 0.944336
vt 0.500977 -1.011719
vt -0.610352 0.944336
vt 1.006836 0.499023
vt 0.998047 -0.020508
vt 0.000000 -0.018555
vt 0.000000 0.499023
vt -0.335938 0.578125
vt 7.529297 0.000000
vt -0.333008 0.000000
vt -0.333008 -0.050781
vt 7.529297 -0.050781
vt -0.317383 0.525391
vt 0.982422 1.285156
vt 0.059570 -1.054688
vt 0.000000 1.285156
vt 0.928711 -1.046875
vt 0.946289 -1.094727
vt 1.000000 1.237305
vt 0.076172 -1.102539
vt 0.019531 1.207031
vt 0.859375 -1.093750
vt 1.234375 1.258789
vt 0.016602 1.237305
vt 1.413086 1.387695
vt 0.000000 -1.046875
vt 1.129883 1.285156
vt 0.779297 -1.078125
vt -0.087891 1.234375
vt 0.109375 1.263672
vt 0.110352 -1.075195
vt 1.518555 1.366211
vt 0.783203 0.363281
vt 0.663086 0.048828
vt 0.536133 0.427734
vt 0.872070 -0.004883
vt 1.565430 0.590820
vt 1.075195 0.041504
vt -0.252930 0.996094
vt 1.667969 0.753418
vt 3.257812 0.118652
vt 0.832031 0.385742
vt 0.595703 0.447266
vt -0.124023 0.099609
vt 0.207031 0.692383
vt 0.430664 0.497559
vt 1.040039 0.013184
vt 0.944336 0.955566
vt 1.238281 0.781250
vt 0.290039 0.142578
vt 0.322266 0.753418
vt 0.333984 0.978027
vt -0.589844 0.781250
vt 0.000000 0.750000
vt 1.634766 1.125000
vt 0.130859 -0.896484
vt -1.634766 1.125000
vt -0.658203 0.193359
vt 1.515625 1.078125
vt 0.792969 -0.640625
vt 0.460938 1.626953
vt 0.228516 0.640625
vt 2.556641 0.759766
vt 1.259766 -0.599609
vt 1.119141 1.574219
vt -0.273438 0.820312
vt 0.414062 1.611328
vt 1.806641 0.574219
vt 0.773438 -0.562500
vt 0.601562 3.017578
vt 1.013672 0.240234
vt -0.154297 0.250000
vt 1.056641 0.000000
vt -0.109375 0.000000
vt 0.484375 2.054688
vt 1.271484 -0.048828
vt -0.269531 -0.048828
vt -0.152344 0.000000
vt 0.539062 3.015625
vt 1.207031 0.000000
vt 0.498047 0.832031
vt 1.998047 0.000000
vt 0.500000 0.000000
vt -0.998047 0.000000
vt 1.998047 -4.230469
vt 0.000000 -4.230469
vt 0.000000 1.136719
vt 1.998047 1.136719
vt 1.998047 -4.314453
vt 0.000000 -4.314453
vt 0.000000 1.050781
vt 1.998047 1.050781
vt -0.435547 0.998047
vt 0.541016 0.998047
vt 0.089844 -1.833984
vt -0.345703 -0.416016
vt 0.503906 1.121094
vt 1.363281 -0.416016
vt 0.117188 1.000000
vt 1.037109 1.000000
vt 0.685547 -1.125000
vt -0.785156 1.000000
vt 0.355469 1.000000
vt -0.212891 -1.476562
vt 1.558594 0.453125
vt -0.199219 0.453125
vt 0.677734 2.166016
vt -0.248047 -0.166016
vt 0.646484 1.447266
vt 1.535156 -0.166016
vt 0.503906 1.041016
vt 1.025391 -0.427734
vt -0.130859 -0.427734
vt 1.240234 -0.066406
vt -0.134766 -0.066406
vt 0.570312 1.341797
vt 0.166016 -0.181641
vt 0.802734 1.248047
vt 1.505859 -0.181641
s 0
usemtl base
f 14/1/1 30/2/1 1/3/1
f 30/2/2 2/4/2 1/3/2
f 6/5/3 4/6/3 3/7/3
f 6/5/4 5/8/4 4/6/4
f 7/9/5 6/10/5 3/11/5
f 8/12/6 7/9/6 3/11/6
f 9/3/7 8/2/7 3/1/7
f 29/4/8 8/2/8 9/3/8
f 11/13/9 10/14/9 13/15/9
f 13/15/10 12/16/10 11/13/10
f 6/12/11 15/9/11 14/11/11
f 11/17/12 37/18/12 10/19/12
f 16/6/13 5/8/13 6/5/13
f 15/9/14 30/10/14 14/11/14
f 16/6/15 6/5/15 14/7/15
f 18/13/16 17/14/16 20/15/16
f 20/15/17 19/16/17 18/13/17
f 23/15/18 22/16/18 21/13/18
f 21/17/19 24/18/19 26/19/19
f 23/20/20 25/21/20 22/22/20
f 21/13/21 26/14/21 23/15/21
f 8/5/22 28/6/22 27/7/22
f 8/5/23 29/8/23 28/6/23
f 27/7/24 31/6/24 30/5/24
f 31/6/25 2/8/25 30/5/25
f 18/17/26 40/18/26 17/19/26
f 20/20/27 32/21/27 19/22/27
f 35/23/28 39/24/28 42/25/28
f 35/23/29 36/26/29 39/24/29
f 33/27/30 34/28/30 39/29/30
f 34/30/31 33/31/31 32/32/31
f 13/20/32 41/21/32 12/22/32
f 34/28/33 38/33/33 39/29/33
f 37/34/34 36/35/34 35/25/34
f 40/36/35 39/37/35 38/38/35
f 42/39/36 39/40/36 41/41/36
usemtl snow
f 44/42/37 48/43/37 43/44/37
f 44/42/37 52/45/37 48/43/37
f 46/46/38 48/47/38 45/48/38
f 45/48/39 47/49/39 46/46/39
f 49/50/40 48/47/40 46/46/40
f 46/46/41 47/49/41 49/50/41
f 44/42/42 50/51/42 52/45/42
f 48/43/43 49/52/43 43/44/43
f 50/53/44 51/54/44 53/55/44
f 53/55/45 52/56/45 50/53/45
f 54/57/46 52/56/46 53/55/46
f 53/55/47 51/54/47 54/57/47
f 55/58/48 58/59/48 59/60/48
f 59/60/49 56/61/49 55/58/49
f 57/62/50 56/61/50 59/60/50
f 59/60/51 58/59/51 57/62/51
usemtl ice
f 61/63/52 60/64/52 64/65/52
f 62/66/53 61/63/53 64/65/53
f 64/67/54 65/68/54 63/69/54
f 64/67/55 66/70/55 65/68/55
f 68/71/56 67/72/56 63/73/56
f 68/71/56 69/74/56 67/72/56
f 71/75/57 70/76/57 64/77/57
f 71/75/58 64/77/58 67/78/58
usemtl machine
f 72/79/59 81/80/59 78/81/59
f 73/82/60 72/79/60 79/83/60
f 76/82/61 77/79/61 74/83/61
f 77/84/62 76/85/62 75/86/62
f 79/87/63 72/88/63 78/89/63
f 77/79/64 75/80/64 80/81/64
f 74/87/65 77/88/65 80/89/65
f 72/84/62 73/85/62 81/86/62
f 83/90/66 95/91/66 82/92/66
f 84/93/67 83/90/67 82/92/67
f 89/79/68 87/80/68 85/81/68
f 88/82/69 89/79/69 86/83/69
f 86/87/70 89/88/70 85/89/70
f 89/84/62 88/85/62 87/86/62
f 91/90/71 84/91/71 90/92/71
f 92/93/72 91/90/72 90/92/72
f 93/90/73 92/91/73 94/92/73
f 95/93/74 93/90/74 94/92/74
usemtl runway
f 97/94/75 96/95/75 99/96/75
f 97/94/76 99/96/76 98/97/76
f 103/98/77 101/99/77 100/100/77
f 103/98/78 100/100/78 102/101/78
f 105/98/79 106/100/79 104/101/79
f 105/98/79 107/99/79 106/100/79
usemtl techno
f 109/102/80 114/103/80 108/104/80
f 110/105/81 115/106/81 116/107/81
f 113/108/82 109/109/82 111/110/82
f 114/111/83 113/112/83 112/113/83
f 117/114/84 116/115/84 115/116/84
f 117/117/85 115/118/85 110/119/85
f 120/120/86 119/121/86 118/122/86
f 123/123/87 122/124/87 121/125/87
f 126/126/88 125/127/88 124/128/88
