# Blender 4.3.1
# www.blender.org
# mtllib background7.mtl
o background
v -477.850281 -224.478134 -402.283966
v 455.105927 -224.478134 -402.283966
v -477.850281 708.478149 -402.283997
v 455.105927 708.478149 -402.283997
v 351.006714 708.478210 540.095032
v 351.006653 708.478149 -392.861176
v 351.006714 -224.477997 540.095093
v 351.006653 -224.478073 -392.861084
v -346.844604 708.478149 -392.861176
v -346.844604 708.478210 540.095032
v -346.844604 -224.478073 -392.861084
v -346.844604 -224.477997 540.095093
vn -0.0000 -0.0000 1.0000
vn -0.7071 -0.7071 -0.0000
vn -0.3661 0.8555 -0.3661
vn -0.3503 -0.3503 -0.8686
vn -0.7071 0.7071 -0.0000
vn 0.2029 -0.6924 -0.6924
vn 0.7071 0.7071 -0.0000
vn 0.7071 -0.7071 -0.0000
vn 0.3503 0.3503 -0.8686
vt -1.000000 0.000000
vt 0.000000 -1.000000
vt 0.000000 0.000000
vt -1.000000 -1.000000
s 1
f 2/1/1 3/2/1 1/3/1
f 2/1/1 4/4/1 3/2/1
f 6/1/2 7/2/3 5/3/4
f 6/1/2 8/4/5 7/2/3
f 10/1/6 11/2/7 9/3/8
f 10/1/6 12/4/9 11/2/7
f 5/3/4 9/3/8 6/1/2
f 10/1/6 9/3/8 5/3/4
f 5/3/4 7/2/3 10/1/6
f 10/1/6 7/2/3 12/4/9
f 7/2/3 8/4/5 12/4/9
f 12/4/9 8/4/5 11/2/7
